<?xml version="1.0" standalone="no"?>
<!DOCTYPE svg PUBLIC "-//W3C//DTD SVG 20010904//EN"
 "http://www.w3.org/TR/2001/REC-SVG-20010904/DTD/svg10.dtd">
<svg version="1.0" xmlns="http://www.w3.org/2000/svg"
 width="799.000000pt" height="799.000000pt" viewBox="0 0 799.000000 799.000000"
 preserveAspectRatio="xMidYMid meet">
<metadata>
Created by potrace 1.14, written by Peter Selinger 2001-2017
</metadata>
<g transform="translate(0.000000,799.000000) scale(0.100000,-0.100000)"
fill="#000000" stroke="none">
<path d="M3728 7905 c-2 -1 -41 -5 -88 -9 -47 -3 -96 -8 -110 -10 -14 -2 -47
-7 -75 -11 -128 -17 -121 -16 -195 -30 -14 -3 -38 -8 -55 -10 -16 -3 -67 -15
-111 -26 -45 -11 -92 -22 -105 -24 -19 -4 -117 -32 -177 -50 -7 -3 -13 -4 -15
-5 -21 0 -299 -105 -385 -145 -29 -14 -55 -25 -57 -25 -7 0 -239 -113 -245
-119 -3 -3 -27 -17 -55 -31 -27 -14 -52 -27 -55 -30 -3 -3 -21 -14 -40 -24
-31 -17 -280 -179 -305 -198 -14 -12 -77 -59 -115 -88 -37 -27 -92 -72 -100
-80 -3 -3 -36 -32 -75 -65 -86 -73 -299 -286 -380 -379 -33 -38 -66 -75 -72
-82 -7 -7 -13 -15 -13 -18 0 -3 -16 -22 -35 -43 -19 -21 -35 -42 -35 -46 0 -4
-5 -13 -10 -20 -6 -7 -22 -25 -36 -42 -14 -16 -66 -91 -114 -165 -49 -74 -93
-139 -97 -145 -5 -5 -14 -21 -20 -35 -7 -14 -26 -50 -44 -80 -46 -81 -142
-274 -179 -360 -17 -41 -37 -88 -44 -105 -7 -16 -19 -46 -26 -65 -6 -19 -16
-44 -21 -55 -16 -37 -67 -199 -88 -278 -11 -43 -22 -81 -25 -85 -6 -10 -71
-330 -81 -395 -3 -27 -8 -57 -10 -67 -2 -11 -7 -50 -10 -87 -4 -37 -11 -99
-15 -138 -8 -72 -5 -637 4 -690 2 -16 8 -57 11 -90 7 -65 25 -181 40 -260 3
-16 10 -55 16 -85 37 -197 137 -519 227 -735 74 -178 270 -553 294 -563 4 -2
8 -8 8 -13 0 -11 116 -185 142 -213 10 -11 18 -23 18 -27 0 -9 163 -213 235
-293 196 -219 434 -435 645 -584 36 -26 66 -50 68 -54 2 -5 9 -8 16 -8 7 0 21
-9 31 -20 10 -11 22 -20 27 -20 5 0 35 -17 66 -39 87 -59 273 -162 415 -230
70 -33 130 -61 133 -61 3 0 20 -7 37 -15 51 -23 176 -71 293 -112 l109 -38
1126 -3 1126 -2 144 45 c202 64 363 127 462 181 15 8 27 12 27 7 0 -4 4 -3 8
2 4 6 34 24 67 40 157 79 494 284 503 307 2 4 8 8 13 8 5 0 17 6 26 14 10 8
63 50 118 93 55 43 107 85 115 93 9 8 44 40 79 70 110 96 279 269 381 390 19
23 40 47 46 53 29 32 178 234 231 313 193 288 357 624 467 954 39 119 101 334
112 394 2 11 6 32 9 46 3 14 8 41 11 60 3 19 10 54 15 77 13 61 38 241 46 342
16 176 9 632 -11 796 -2 17 -7 55 -10 85 -4 30 -13 91 -22 135 -26 140 -32
170 -34 170 -1 0 -3 14 -5 30 -2 17 -8 46 -14 65 -5 19 -22 79 -36 133 -88
325 -264 738 -421 985 -19 29 -34 54 -34 57 0 5 -61 98 -69 105 -4 3 -12 17
-19 31 -8 14 -27 41 -43 60 -16 19 -29 37 -29 41 0 5 -9 18 -19 30 -11 13 -51
63 -89 111 -39 49 -92 114 -119 144 -69 81 -297 309 -372 373 -35 30 -69 60
-75 65 -6 6 -32 26 -56 45 -25 19 -46 38 -48 42 -2 4 -10 8 -18 8 -8 0 -14 4
-14 8 0 5 -35 33 -77 62 -43 30 -79 58 -81 62 -2 4 -7 8 -12 8 -4 0 -37 20
-74 45 -37 24 -96 61 -132 82 -36 21 -80 46 -97 57 -43 25 -303 156 -312 156
-3 0 -36 14 -73 31 -95 43 -99 45 -177 73 -72 26 -218 75 -245 81 -8 3 -40 11
-70 20 -30 9 -62 18 -70 20 -111 27 -150 36 -220 50 -14 3 -79 14 -145 25
-118 19 -143 22 -315 39 -76 8 -584 13 -592 6z"/>
</g>
</svg>
